<svg width="20" height="24" viewBox="0 0 20 24" fill="none" xmlns="http://www.w3.org/2000/svg">
<path d="M13.4726 0H3.83317C2.42494 0 1.2788 1.14694 1.2788 2.55437V12H1.02931C0.460946 12 0 12.4605 0 13.0293V19.2717C0 19.8405 0.460896 20.301 1.02931 20.301H1.2788V21.4456C1.2788 22.8546 2.42494 24 3.83317 24H16.9857C18.393 24 19.5393 22.8546 19.5393 21.4456V6.04551L13.4726 0ZM2.70032 14.1559C3.00197 14.1049 3.42598 14.0665 4.02337 14.0665C4.62708 14.0665 5.05736 14.1817 5.34648 14.4132C5.62264 14.6313 5.80901 14.9913 5.80901 15.4151C5.80901 15.8387 5.66779 16.1988 5.41084 16.4428C5.07663 16.7574 4.58238 16.8986 4.00421 16.8986C3.87553 16.8986 3.76019 16.8922 3.67 16.8797V18.4276H2.70032V14.1559ZM16.9857 22.4357H3.83317C3.2879 22.4357 2.84388 21.9916 2.84388 21.4456V20.301H15.1047C15.6732 20.301 16.1341 19.8405 16.1341 19.2717V13.0293C16.1341 12.4605 15.6732 12 15.1047 12H2.84388V2.55437C2.84388 2.00989 3.28795 1.56587 3.83317 1.56587L12.8873 1.55641V4.90315C12.8873 5.88069 13.6805 6.67461 14.6588 6.67461L17.9373 6.6652L17.9742 21.4456C17.9742 21.9916 17.5309 22.4357 16.9857 22.4357ZM6.43428 18.408V14.1559C6.79392 14.0986 7.26269 14.0665 7.75738 14.0665C8.57952 14.0665 9.11264 14.214 9.53038 14.5285C9.97993 14.8627 10.2623 15.3954 10.2623 16.1603C10.2623 16.9887 9.96066 17.5607 9.54287 17.9137C9.08706 18.2926 8.3932 18.4723 7.54553 18.4723C7.03789 18.4723 6.67824 18.4401 6.43428 18.408ZM13.4444 15.8905V16.6867H11.8898V18.4276H10.9072V14.0986H13.5534V14.9011H11.8898V15.8905H13.4444Z" fill="white"/>
</svg>
