<svg width="28" height="20" viewBox="0 0 28 20" fill="none" xmlns="http://www.w3.org/2000/svg">
<g opacity="0.6">
<path d="M12.2599 12.5109C11.9799 12.8527 11.5918 13.1116 11.0957 13.2875C10.5995 13.4634 10.036 13.5513 9.40514 13.5513C8.75658 13.5513 8.18245 13.4136 7.68274 13.1381C7.18303 12.8627 6.79672 12.4694 6.52383 11.9583C6.25449 11.4439 6.1145 10.8448 6.10386 10.1612V9.59364C6.10386 8.49843 6.38384 7.64384 6.9438 7.02985C7.50376 6.41255 8.28522 6.1039 9.28819 6.1039C10.1494 6.1039 10.8334 6.30303 11.3402 6.70129C11.847 7.09955 12.1518 7.6737 12.2546 8.42376H10.9362C10.7873 7.55091 10.2469 7.11448 9.31477 7.11448C8.71228 7.11448 8.25333 7.31859 7.93791 7.72681C7.62603 8.1317 7.46478 8.72743 7.45415 9.51399V10.0716C7.45415 10.8548 7.62958 11.4638 7.98044 11.8986C8.33484 12.33 8.82569 12.5457 9.45299 12.5457C10.1405 12.5457 10.6296 12.3997 10.9202 12.1076V10.6889H9.3254V9.73303H12.2599V12.5109Z" fill="#09021A"/>
<path d="M15.1571 13.4518H13.8175V6.20347H15.1571V13.4518Z" fill="#09021A"/>
<path d="M21.2706 10.3802H18.1554V13.4518H16.8104V6.20347H21.7278V7.21903H18.1554V9.3746H21.2706V10.3802Z" fill="#09021A"/>
<path fill-rule="evenodd" clip-rule="evenodd" d="M0.12987 2.20779C0.12987 1.06019 1.06019 0.12987 2.20779 0.12987H25.5844C26.732 0.12987 27.6623 1.06019 27.6623 2.20779V17.7922C27.6623 18.9398 26.732 19.8701 25.5844 19.8701H2.20779C1.06019 19.8701 0.12987 18.9398 0.12987 17.7922V2.20779ZM2.20779 1.68831C1.92089 1.68831 1.68831 1.92089 1.68831 2.20779V17.7922C1.68831 18.0791 1.92089 18.3117 2.20779 18.3117H25.5844C25.8713 18.3117 26.1039 18.0791 26.1039 17.7922V2.20779C26.1039 1.92089 25.8713 1.68831 25.5844 1.68831H2.20779Z" fill="#09021A"/>
<path fill-rule="evenodd" clip-rule="evenodd" d="M0 2.20779C0 0.988463 0.988462 0 2.20779 0H25.5844C26.8037 0 27.7922 0.988462 27.7922 2.20779V17.7922C27.7922 19.0115 26.8037 20 25.5844 20H2.20779C0.988463 20 0 19.0115 0 17.7922V2.20779ZM2.20779 1.81818C1.99262 1.81818 1.81818 1.99262 1.81818 2.20779V17.7922C1.81818 18.0074 1.99262 18.1818 2.20779 18.1818H25.5844C25.7996 18.1818 25.974 18.0074 25.974 17.7922V2.20779C25.974 1.99262 25.7996 1.81818 25.5844 1.81818H2.20779ZM2.20779 0.12987C1.06019 0.12987 0.12987 1.06019 0.12987 2.20779V17.7922C0.12987 18.9398 1.06019 19.8701 2.20779 19.8701H25.5844C26.732 19.8701 27.6623 18.9398 27.6623 17.7922V2.20779C27.6623 1.06019 26.732 0.12987 25.5844 0.12987H2.20779ZM1.68831 2.20779C1.68831 1.92089 1.92089 1.68831 2.20779 1.68831H25.5844C25.8713 1.68831 26.1039 1.92089 26.1039 2.20779V17.7922C26.1039 18.0791 25.8713 18.3117 25.5844 18.3117H2.20779C1.92089 18.3117 1.68831 18.0791 1.68831 17.7922V2.20779Z" fill="#09021A"/>
</g>
</svg>
