<svg width="20" height="20" viewBox="0 0 20 20" fill="none" xmlns="http://www.w3.org/2000/svg">
<g opacity="0.6">
<path fill-rule="evenodd" clip-rule="evenodd" d="M10 1.81818C5.48117 1.81818 1.81818 5.48117 1.81818 10C1.81818 14.5188 5.48117 18.1818 10 18.1818C14.518 18.1818 18.1818 14.5188 18.1818 10C18.1818 5.48123 14.518 1.81818 10 1.81818ZM0 10C0 4.47701 4.47701 0 10 0C15.522 0 20 4.47695 20 10C20 15.523 15.522 20 10 20C4.47701 20 0 15.523 0 10Z" fill="white"/>
<path fill-rule="evenodd" clip-rule="evenodd" d="M8.18182 12.7273V5.75758C8.18182 5.59022 8.31749 5.45455 8.48485 5.45455H9.24242C9.40978 5.45455 9.54545 5.59022 9.54545 5.75758V12.7273L8.18182 12.7273Z" fill="white"/>
<path fill-rule="evenodd" clip-rule="evenodd" d="M8.18182 12.9293C8.07025 12.9293 7.9798 12.8388 7.9798 12.7273L7.9798 5.75758C7.9798 5.47864 8.20592 5.25253 8.48485 5.25253H9.24242C9.52136 5.25253 9.74747 5.47864 9.74747 5.75758V12.7273C9.74747 12.8388 9.65703 12.9293 9.54545 12.9293H8.18182ZM8.18182 12.7273V5.75758C8.18182 5.59022 8.31749 5.45455 8.48485 5.45455H9.24242C9.40978 5.45455 9.54545 5.59022 9.54545 5.75758V12.7273L8.18182 12.7273Z" fill="white"/>
<path fill-rule="evenodd" clip-rule="evenodd" d="M8.18182 11.8182H12.4242C12.5916 11.8182 12.7273 11.9539 12.7273 12.1212V12.8788C12.7273 13.0461 12.5916 13.1818 12.4242 13.1818H8.48485C8.31749 13.1818 8.18182 13.0461 8.18182 12.8788V11.8182Z" fill="white"/>
<path fill-rule="evenodd" clip-rule="evenodd" d="M7.9798 11.8182C7.9798 11.7066 8.07025 11.6162 8.18182 11.6162H12.4242C12.7032 11.6162 12.9293 11.8423 12.9293 12.1212V12.8788C12.9293 13.1577 12.7032 13.3838 12.4242 13.3838H8.48485C8.20592 13.3838 7.9798 13.1577 7.9798 12.8788V11.8182ZM8.18182 12.8788C8.18182 13.0461 8.31749 13.1818 8.48485 13.1818H12.4242C12.5916 13.1818 12.7273 13.0461 12.7273 12.8788V12.1212C12.7273 11.9539 12.5916 11.8182 12.4242 11.8182H8.18182V12.8788Z" fill="white"/>
</g>
</svg>
