<svg width="20" height="20" viewBox="0 0 20 20" fill="none" xmlns="http://www.w3.org/2000/svg">
<path fill-rule="evenodd" clip-rule="evenodd" d="M10 1.81818C5.48117 1.81818 1.81818 5.48117 1.81818 10C1.81818 14.5188 5.48117 18.1818 10 18.1818C14.518 18.1818 18.1818 14.5188 18.1818 10C18.1818 5.48123 14.518 1.81818 10 1.81818ZM0 10C0 4.47701 4.47701 0 10 0C15.522 0 20 4.47695 20 10C20 15.523 15.522 20 10 20C4.47701 20 0 15.523 0 10Z" fill="#6B6776"/>
<path d="M14.499 7.36917C14.499 8.0298 13.9635 8.56534 13.3029 8.56534C12.6422 8.56534 12.1067 8.0298 12.1067 7.36917C12.1067 6.70854 12.6422 6.173 13.3029 6.173C13.9635 6.173 14.499 6.70854 14.499 7.36917Z" fill="#6B6776"/>
<path fill-rule="evenodd" clip-rule="evenodd" d="M14.6 7.36917C14.6 8.08558 14.0193 8.66635 13.3029 8.66635C12.5864 8.66635 12.0057 8.08558 12.0057 7.36917C12.0057 6.65276 12.5864 6.07199 13.3029 6.07199C14.0193 6.07199 14.6 6.65276 14.6 7.36917ZM13.3029 8.56534C13.9635 8.56534 14.499 8.0298 14.499 7.36917C14.499 6.70854 13.9635 6.173 13.3029 6.173C12.6422 6.173 12.1067 6.70854 12.1067 7.36917C12.1067 8.0298 12.6422 8.56534 13.3029 8.56534Z" fill="#6B6776"/>
<path d="M7.8005 7.36917C7.8005 8.0298 7.26496 8.56534 6.60433 8.56534C5.9437 8.56534 5.40816 8.0298 5.40816 7.36917C5.40816 6.70854 5.9437 6.173 6.60433 6.173C7.26496 6.173 7.8005 6.70854 7.8005 7.36917Z" fill="#6B6776"/>
<path fill-rule="evenodd" clip-rule="evenodd" d="M7.90151 7.36917C7.90151 8.08558 7.32075 8.66635 6.60433 8.66635C5.88792 8.66635 5.30715 8.08558 5.30715 7.36917C5.30715 6.65276 5.88792 6.07199 6.60433 6.07199C7.32075 6.07199 7.90151 6.65276 7.90151 7.36917ZM6.60433 8.56534C7.26496 8.56534 7.8005 8.0298 7.8005 7.36917C7.8005 6.70854 7.26496 6.173 6.60433 6.173C5.9437 6.173 5.40816 6.70854 5.40816 7.36917C5.40816 8.0298 5.9437 8.56534 6.60433 8.56534Z" fill="#6B6776"/>
<path fill-rule="evenodd" clip-rule="evenodd" d="M8.98813 15.0934C7.56252 14.7973 6.45161 13.8626 5.79429 13.0264C5.69086 12.8949 5.72483 12.7055 5.86193 12.6096L6.48256 12.1751C6.61967 12.0792 6.80787 12.113 6.91341 12.2429C7.43417 12.8837 8.27007 13.5515 9.26546 13.7583C10.2768 13.9683 11.6031 13.7327 13.1141 12.1588C13.23 12.0381 13.4218 12.027 13.5462 12.139L14.1093 12.6457C14.2337 12.7577 14.2438 12.95 14.1284 13.0712C12.3478 14.9402 10.5577 15.4194 8.98813 15.0934Z" fill="#6B6776"/>
<path fill-rule="evenodd" clip-rule="evenodd" d="M8.94704 15.2912C7.46074 14.9825 6.3119 14.0118 5.63547 13.1513C5.45577 12.9227 5.52017 12.6022 5.74608 12.4441L6.36671 12.0096C6.5977 11.8479 6.90342 11.9102 7.0702 12.1155C7.57208 12.7331 8.37061 13.3661 9.30654 13.5605C10.2381 13.754 11.4967 13.5519 12.9684 12.0189C13.1564 11.8231 13.4723 11.8006 13.6813 11.9888L14.2444 12.4956C14.4509 12.6814 14.4709 13.0045 14.2746 13.2105C12.4556 15.1199 10.5977 15.6341 8.94704 15.2912ZM5.79429 13.0264C6.45161 13.8626 7.56252 14.7973 8.98813 15.0934C10.5577 15.4194 12.3478 14.9402 14.1284 13.0712C14.2438 12.95 14.2337 12.7577 14.1093 12.6457L13.5462 12.139C13.4218 12.027 13.23 12.0381 13.1141 12.1588C11.6031 13.7327 10.2768 13.9683 9.26546 13.7583C8.27007 13.5515 7.43417 12.8837 6.91341 12.2429C6.80787 12.113 6.61967 12.0792 6.48256 12.1751L5.86193 12.6096C5.72483 12.7055 5.69086 12.8949 5.79429 13.0264Z" fill="#6B6776"/>
</svg>
